PathFileType	4	(X/Y/Z)	c:/Users/goper/Files/vsCode/490R/osim_files/A06/A06_SSWS_03.trc
DataRate	CameraRate	NumFrames	NumMarkers	Units                	OrigDataRate	OrigDataStartFrame	OrigNumFrames
120.00	120.00	7	36	mm	120.0	286	1142
                Frame#	Time	LPSIS			LASIS			LTH1			LTH2			LTH3			LTH4			LLFE			LMFE			LSH1			LSH2			LSH3			LSH4			LLMAL			LMMAL			LCAL			LMTP5			LTOE			LMTP1			RPSIS			RASIS			RTH1			RTH2			RTH3			RTH4			RLFE			RMFE			RSH1			RSH2			RSH3			RSH4			RLMAL			RMMAL			RCAL			RMTP1			RTOE			RMTP5		
		X1	Y1	Z1	X2	Y2	Z2	X3	Y3	Z3	X4	Y4	Z4	X5	Y5	Z5	X6	Y6	Z6	X7	Y7	Z7	X8	Y8	Z8	X9	Y9	Z9	X10	Y10	Z10	X11	Y11	Z11	X12	Y12	Z12	X13	Y13	Z13	X14	Y14	Z14	X15	Y15	Z15	X16	Y16	Z16	X17	Y17	Z17	X18	Y18	Z18	X19	Y19	Z19	X20	Y20	Z20	X21	Y21	Z21	X22	Y22	Z22	X23	Y23	Z23	X24	Y24	Z24	X25	Y25	Z25	X26	Y26	Z26	X27	Y27	Z27	X28	Y28	Z28	X29	Y29	Z29	X30	Y30	Z30	X31	Y31	Z31	X32	Y32	Z32	X33	Y33	Z33	X34	Y34	Z34	X35	Y35	Z35	X36	Y36	Z36

286	2.37500	1339.73840	1002.11053	260.05093	1154.60510	954.45032	338.97577	1124.83911	597.13495	371.53876	1102.99438	561.16833	365.55530	1066.04590	620.84784	359.40552	1054.96155	580.23706	355.20319	1061.24866	500.47708	349.42218	1060.78760	498.73636	236.05965	1155.43542	441.66000	358.63425	1173.40186	399.41183	363.18149	1099.79517	411.66171	350.99594	1121.27405	375.05725	354.51019	1296.04187	177.79845	316.78925	1269.40894	178.86095	233.29472	1356.13171	198.95351	259.66138	1222.11279	77.30309	338.66663	1172.67761	80.12720	286.02579	1195.39465	82.60935	246.01039	1328.69128	1014.69568	129.09491	1150.07239	972.65979	83.76012	1277.58057	598.95959	43.83998	1273.62170	556.09875	44.31467	1215.59326	597.85614	54.88268	1219.31543	552.45618	53.38619	1255.81372	441.23480	73.34346	1260.54895	445.85254	162.58498	1284.94275	287.57996	88.14108	1286.52502	239.63124	91.08910	1225.28772	281.39743	102.31701	1233.00439	232.34431	100.34380	1292.71777	105.89291	85.71620	1284.60437	112.18624	168.46957	1352.17712	88.32663	131.66960	1150.93933	58.61377	169.62666	1134.35742	71.31737	128.78842	1160.14856	56.38440	79.81588
287	2.38333	1331.22388	1002.29572	260.15219	1146.51904	953.89697	339.62314	1112.64661	598.86719	373.19455	1090.75659	563.15009	367.34561	1054.17432	622.79572	359.72934	1042.79639	582.98535	356.81097	1047.87146	503.04346	351.12555	1047.12439	501.05203	238.09370	1140.16772	440.26852	359.91290	1156.14075	397.35229	364.28595	1084.03967	413.21619	353.75323	0.00000	0.00000	0.00000	1268.23779	170.08667	316.72241	1240.54578	172.49998	233.67648	1328.06311	187.85881	259.15723	1189.15857	73.69789	339.70120	1140.25720	78.96908	287.72247	1161.96130	77.67432	250.21027	1319.93811	1014.87305	129.16179	1140.93420	972.09760	84.15675	1271.97278	599.39221	44.16728	1268.91626	556.80615	44.20651	1210.08276	597.67853	55.11782	1214.09265	552.21283	53.75158	1251.65503	441.29910	73.52431	1256.50476	445.97943	162.83585	1282.55713	288.04486	88.30756	1284.65759	240.18736	91.18039	1222.28186	280.47607	103.14095	1231.07483	232.24731	100.47430	1292.50720	106.03014	85.77391	1284.33289	112.22409	168.51067	1351.53027	87.92200	131.54948	1151.03943	58.15482	169.08163	1134.09485	71.34782	128.30191	1160.04443	56.24878	79.87379
288	2.39167	1322.69543	1002.34253	260.27487	1138.16931	953.73004	340.02472	1101.01318	600.38391	374.92877	1078.31592	564.97040	369.12256	1042.79858	624.71179	362.47916	1031.24170	585.53381	358.72940	1034.83484	504.94873	352.64178	1033.94421	503.00314	240.13263	1126.32385	439.45023	360.95187	1137.62390	393.90762	365.79559	1066.97961	414.68097	353.33841	1084.83765	376.07449	355.12598	1239.98352	162.54903	316.97421	1211.36865	166.36330	234.31865	1299.73987	177.06897	258.76331	1156.07263	70.55338	341.45441	1106.26050	77.22960	289.29681	0.00000	0.00000	0.00000	1311.06604	1014.88342	129.33714	1132.09656	971.59540	84.57067	1266.27197	599.69684	44.55101	1263.13794	556.75677	44.94358	1204.45496	597.36102	55.44685	1208.94983	551.97754	54.05301	1247.80591	441.60986	74.22913	1250.12451	444.03809	163.61476	1280.11230	288.42966	88.48301	1282.68372	240.52898	91.38678	1218.31165	281.29135	103.73697	1229.20520	232.15309	100.61707	1292.28479	106.13963	85.82339	1284.19495	112.37489	168.49258	1351.42615	88.11207	131.60687	1151.21631	57.78397	169.21420	1133.85645	71.04218	128.38841	1159.98792	56.16711	79.90372
289	2.40000	1314.67273	1002.55493	260.51517	1129.94580	952.92407	340.65375	1089.82898	601.73163	376.68878	1066.75452	566.55518	370.95123	1032.08240	626.37128	364.03574	1019.61273	587.48773	360.11002	1022.56744	507.00314	354.34836	1021.13721	504.68970	242.21294	1111.71045	437.67242	362.11176	1121.02161	391.69211	366.94061	1051.54309	415.36478	357.08069	1067.66333	375.75037	359.11377	1210.98181	155.23347	317.58926	1181.40601	160.15578	235.32941	1272.01392	167.42169	258.66739	1123.23621	68.03626	343.31006	0.00000	0.00000	0.00000	0.00000	0.00000	0.00000	1302.33044	1014.90765	129.54318	1123.48022	971.08508	85.22439	1260.57458	599.97974	44.91042	1257.92261	557.04120	45.27958	1198.67908	596.89325	55.96139	1203.44836	551.24200	54.56553	1243.65027	441.46149	74.07310	1246.19360	444.09711	163.83707	1277.64465	288.76733	88.64519	1280.67700	240.88425	91.55293	1217.01013	279.34863	104.29488	1227.31116	232.09833	100.74162	1292.05200	106.27126	85.89027	1283.86719	112.28342	168.56529	1351.27905	88.28116	131.64330	1151.44006	57.94314	169.42761	1133.31250	70.52265	128.55870	1158.90259	54.45896	81.01170
290	2.40833	1305.54431	1002.11298	260.79623	1121.53137	952.24530	341.16721	1079.14624	603.02130	378.21609	1055.65723	567.86304	372.76172	1022.19598	629.82471	365.74469	1008.36652	589.44684	361.94376	1011.33954	509.17438	356.21564	1008.78149	506.13605	244.27298	1096.00659	434.49075	363.54584	1104.99622	389.89615	367.84033	1036.11597	416.05051	358.24689	1051.35803	376.99323	361.51355	1182.01672	148.23380	318.59656	1151.32617	153.71924	236.18887	1242.84302	157.20001	259.02646	1090.00549	65.84863	345.52475	1039.87817	76.65232	295.13568	1058.90527	75.12988	255.73955	1293.43628	1014.82379	129.85921	1114.43762	971.07251	85.44373	1254.89844	600.20172	45.26012	1252.68848	557.22345	45.63709	1193.08264	596.60345	56.26343	1198.21448	550.88428	55.00545	1239.62097	441.53201	74.35087	1243.01636	445.27969	163.76515	1275.22900	289.19427	88.82302	1278.67761	241.37070	91.64375	1214.92456	279.54562	103.56310	1225.12378	231.52336	101.06963	1291.80457	106.41656	85.92728	1282.84619	111.83277	168.68713	1351.14746	88.49992	131.66855	1151.10522	58.52761	169.41692	1133.43787	70.55582	128.66615	1159.24487	55.01632	80.50362
291	2.41667	1296.89600	1001.86938	261.22217	1113.02869	951.49103	341.74686	1068.99207	603.56512	379.90616	1044.90747	568.89435	374.34854	1010.86078	630.42316	366.23346	997.76721	590.79987	363.44928	1000.34491	510.53104	357.62790	996.61279	507.10202	246.07863	1081.94580	432.28159	364.53171	1089.74927	387.95847	368.84229	1020.61896	416.64743	360.25317	1034.46045	376.59317	362.95834	1152.81165	141.90039	319.97372	1121.43359	148.63199	237.89799	1213.19104	147.62859	260.09863	1056.46631	63.91827	348.15814	1006.75635	77.60565	298.24194	1026.05884	74.77675	257.81311	1284.64478	1014.68317	130.27312	1105.87195	970.74512	86.43253	1249.14648	600.47931	45.62356	1247.42004	557.42285	45.97044	1187.46240	596.15857	56.62145	1193.30884	550.96747	55.17983	1235.58521	441.57614	74.64240	1238.84155	445.23856	164.03856	1272.72388	289.65494	88.96680	1276.73840	241.86748	91.75018	1212.42651	280.51691	104.10228	1223.46863	231.88266	101.04083	1291.58569	106.60032	85.95438	1283.42285	112.47946	168.63594	1350.64124	88.44492	131.73288	1150.99939	58.35908	169.44322	1133.39233	70.37505	128.48172	1159.68457	55.76619	80.08843
292	2.42500	1288.21497	1001.57690	261.73904	1104.44531	950.88196	342.25232	1058.92688	604.27368	381.17310	1034.80994	569.81836	375.75128	1001.09241	631.99658	368.39029	988.31158	591.86688	364.80658	989.14545	511.94421	359.26526	985.78339	508.16556	247.94493	1068.42444	430.23929	365.26447	1073.61157	385.20822	369.92819	1006.84949	417.99637	362.55328	1017.53088	376.56784	364.36002	1123.67798	135.73811	321.78738	1090.74585	142.63759	241.21902	1182.71606	137.46786	261.03412	1023.94531	63.26964	351.19888	974.13727	80.28358	301.93433	992.57648	75.25710	260.96625	1275.78015	1014.50482	130.75186	1096.89502	969.96967	87.02280	1243.42090	600.69568	46.00988	1242.07849	557.57251	46.35089	1181.58313	595.62878	57.13353	1188.25317	550.86719	55.34945	1231.55298	441.89255	75.22897	1234.78308	445.24780	164.27710	1270.22205	290.09070	89.15752	1274.70508	242.29153	91.91650	1211.00635	280.21149	103.41406	1221.85315	232.09608	101.06841	1291.37122	106.80035	85.97349	1282.37732	111.99519	168.76169	1350.51978	88.64944	131.75681	1151.09827	58.46589	169.43803	1133.25586	70.20245	128.51233	1159.60437	55.65279	80.10774
